<svg xmlns="http://www.w3.org/2000/svg" height="24" viewBox="0 0 24 24" width="24" focusable="false" aria-hidden="true" style="pointer-events: none; display: inherit; width: 100%; height: 100%;"><path d="M19.395 1.196a1 1 0 00-.199 1.4A9 9 0 0121 8a1 1 0 002 0 11 11 0 00-2.205-6.605 1 1 0 00-1.4-.199Zm-16.192.2A11 11 0 001 8a1 1 0 002 0 9 9 0 011.803-5.404 1 1 0 00-1.6-1.2ZM12 1a7 7 0 00-7 7v4.446a1 1 0 01-.144.515L3.05 15.972C2.25 17.305 3.21 19 4.766 19H8a4 4 0 108 0h3.233c1.555 0 2.515-1.695 1.715-3.029l-1.805-3.01a1 1 0 01-.143-.515V8a7 7 0 00-7-7Zm0 2a5 5 0 015 5v4.445a3 3 0 00.428 1.545L19.233 17H4.766l1.806-3.01c.28-.466.428-1 .428-1.544V8a5 5 0 015-5Zm-2 16h4a2 2 0 01-4 0Z"></path></svg>
